<?xml version="1.0" encoding="UTF-8" standalone="no"?>
<!-- Created with Inkscape (http://www.inkscape.org/) -->

<svg
   xmlns:dc="http://purl.org/dc/elements/1.1/"
   xmlns:cc="http://creativecommons.org/ns#"
   xmlns:rdf="http://www.w3.org/1999/02/22-rdf-syntax-ns#"
   xmlns:svg="http://www.w3.org/2000/svg"
   xmlns="http://www.w3.org/2000/svg"
   xmlns:sodipodi="http://sodipodi.sourceforge.net/DTD/sodipodi-0.dtd"
   xmlns:inkscape="http://www.inkscape.org/namespaces/inkscape"
   width="19.1mm"
   height="21.6mm"
   viewBox="0 0 19.100001 21.6"
   version="1.1"
   id="svg8"
   inkscape:version="0.92.1 r15371"
   sodipodi:docname="Play_shell_40.svg">
  <defs
     id="defs2" />
  <sodipodi:namedview
     id="base"
     pagecolor="#ffffff"
     bordercolor="#666666"
     borderopacity="1.0"
     inkscape:pageopacity="0.0"
     inkscape:pageshadow="2"
     inkscape:zoom="7.9195959"
     inkscape:cx="-22.940784"
     inkscape:cy="46.902789"
     inkscape:document-units="mm"
     inkscape:current-layer="layer1"
     showgrid="false"
     inkscape:window-width="2560"
     inkscape:window-height="1315"
     inkscape:window-x="-13"
     inkscape:window-y="-13"
     inkscape:window-maximized="1"
     showborder="true" />
  <metadata
     id="metadata5">
    <rdf:RDF>
      <cc:Work
         rdf:about="">
        <dc:format>image/svg+xml</dc:format>
        <dc:type
           rdf:resource="http://purl.org/dc/dcmitype/StillImage" />
        <dc:title></dc:title>
      </cc:Work>
    </rdf:RDF>
  </metadata>
  <g
     inkscape:label="Layer 1"
     inkscape:groupmode="layer"
     id="layer1"
     transform="translate(0,-275.40001)">
    <path
       style="color:#000000;font-style:normal;font-variant:normal;font-weight:normal;font-stretch:normal;font-size:medium;line-height:normal;font-family:sans-serif;font-variant-ligatures:normal;font-variant-position:normal;font-variant-caps:normal;font-variant-numeric:normal;font-variant-alternates:normal;font-feature-settings:normal;text-indent:0;text-align:start;text-decoration:none;text-decoration-line:none;text-decoration-style:solid;text-decoration-color:#000000;letter-spacing:normal;word-spacing:normal;text-transform:none;writing-mode:lr-tb;direction:ltr;text-orientation:mixed;dominant-baseline:auto;baseline-shift:baseline;text-anchor:start;white-space:normal;shape-padding:0;clip-rule:nonzero;display:inline;overflow:visible;visibility:visible;opacity:1;isolation:auto;mix-blend-mode:normal;color-interpolation:sRGB;color-interpolation-filters:linearRGB;solid-color:#000000;solid-opacity:1;vector-effect:none;fill:#008cb6;fill-opacity:1;fill-rule:nonzero;stroke:#0089b6;stroke-width:0.5;stroke-linecap:round;stroke-linejoin:round;stroke-miterlimit:4;stroke-dasharray:none;stroke-dashoffset:0;stroke-opacity:1;paint-order:normal;color-rendering:auto;image-rendering:auto;shape-rendering:auto;text-rendering:auto;enable-background:accumulate"
       d="m 9.2714844,275.50977 0.2265625,0.58007 -0.058594,0.1543 0.140625,0.0547 0.00391,0.01 0.00977,-0.004 0.3632812,0.14258 0.00391,0.002 0.8320315,0.42578 0.390625,-0.76367 -0.871094,-0.44531 -0.03906,-0.0176 L 9.75,275.44336 H 9.4394531 Z m -3.0957032,1.61328 0.4179688,0.75 1.5,-0.83789 -0.4179688,-0.75 z m 6.1054688,0.57617 1.5,0.83789 0.419922,-0.75 -1.5,-0.83789 z m -9.0898438,1.15234 0.4394532,0.73828 1.4765625,-0.88086 -0.4394531,-0.73828 z M 15.25,279.40625 l 1.474609,0.87891 0.441407,-0.73828 -1.476563,-0.87891 z m -14.4140625,0.90234 -0.0351563,0.0254 -0.43945313,0.34961 -0.15625,0.27149 -0.0175781,0.11719 0.55273438,0.0859 0.15820312,0.19727 0.421875,-0.33789 0.8515625,-0.55274 -0.4667969,-0.7207 z m 17.3730465,0.76368 -0.07422,0.0117 0.0098,0.0684 -0.04102,0.0527 0.05664,0.0449 0.05664,0.375 0.04492,0.88672 0.857422,-0.043 -0.04687,-0.91602 -0.0039,-0.043 -0.08398,-0.55469 -0.15625,-0.27149 -0.1875,-0.14843 z m -18.17968712,3.48828 0.859375,0.0117 0.0234375,-1.7168 -0.85742188,-0.0117 z m 18.26562512,-0.34571 0.02539,1.7168 0.859376,-0.0117 -0.02539,-1.71875 z m -18.2871095,2.07618 0.02539062,1.71875 0.85742188,-0.0137 -0.0234375,-1.71679 z m 18.2714845,3.06445 0.859375,0.0117 0.02344,-1.7168 -0.859375,-0.0117 z m -18.21875013,0.38672 0.05664063,1.0957 0.003906,0.043 0.0839844,0.55469 0.15625,0.26953 0.046875,0.0391 0.30859376,-0.38672 0.33789062,-0.0508 -0.0820313,-0.53906 -0.0546875,-1.06836 z m 18.09960913,1.39843 -0.291015,0.23243 -0.701172,0.45507 0.466797,0.72071 0.71875,-0.4668 0.03516,-0.0254 0.439453,-0.35156 0.15625,-0.26953 0.04492,-0.29493 -0.849609,-0.13085 z M 1.8691406,292.75 l 1.4765625,0.88086 0.4394531,-0.73828 -1.4746093,-0.87891 z m 12.3671874,0.83984 0.439453,0.73633 1.476563,-0.8789 -0.439453,-0.73829 z m -9.4042968,0.92578 1.5,0.8379 0.4179688,-0.75 -1.4980469,-0.8379 z m 6.4199218,0.75196 0.419922,0.75 1.498047,-0.83789 -0.417969,-0.75 z m -3.4062499,0.93164 1.03125,0.52539 0.039063,0.0176 0.5234375,0.20508 0.1542969,-0.40039 0.15625,0.40039 0.335938,-0.13086 -0.3125005,-0.80079 -0.1777344,0.0703 -0.3476562,-0.13672 -1.0097657,-0.51563 z"
       id="path4864"
       inkscape:connector-curvature="0" />
  </g>
</svg>
